<svg width="22" height="22" viewBox="0 0 22 22" fill="none" xmlns="http://www.w3.org/2000/svg">
<path d="M11.0994 1.90019C9.08375 -0.115436 6.08375 -0.537311 3.64625 0.681439L7.3025 4.29081C7.6775 4.66581 7.6775 5.32206 7.3025 5.69706L5.70875 7.29081C5.28688 7.71269 4.6775 7.71269 4.3025 7.29081L0.646255 3.68144C-0.52562 6.07206 -0.103745 9.07206 1.91188 11.0877C3.78688 12.9627 6.50563 13.4314 8.8025 12.5877L16.7713 20.5564C17.8025 21.5408 19.4431 21.5408 20.4744 20.5564C21.5056 19.5252 21.5056 17.8377 20.4744 16.8064L12.5525 8.88456C13.4431 6.54081 12.9744 3.77519 11.0994 1.90019Z" fill="#1A434E"/>
</svg>
