<svg width="149" height="172" viewBox="0 0 149 172" fill="none" xmlns="http://www.w3.org/2000/svg">
<path d="M71.4363 112.127L104.364 61.4229L95.0626 55.5407L68.6339 96.2374L46.1729 81.651L39.8185 91.436L71.4363 112.127ZM89.8756 159.197C71.8484 158.556 55.676 151.61 41.3582 138.36C27.0405 125.11 17.9064 109.192 13.9561 90.6075L4.67802 46.9577L58.6888 12.4747L122.056 22.0083L131.334 65.6581C135.284 84.2429 133.414 102.499 125.723 120.428C118.033 138.356 106.084 151.279 89.8756 159.197ZM87.4586 147.826C100.532 140.191 110.13 128.982 116.252 114.198C122.375 99.4146 123.734 84.0143 120.33 67.9971L112.689 32.0502L61.1837 24.2125L17.3195 52.3216L24.9602 88.2685C28.3648 104.286 35.8702 117.802 47.4765 128.817C59.0828 139.832 72.4102 146.168 87.4586 147.826Z" fill="#1A4D4F"/>
</svg>
