<svg width="95" height="90" viewBox="0 0 95 90" fill="none" xmlns="http://www.w3.org/2000/svg">
<path d="M10 80V10C10 10 10 11.8542 10 15.5625C10 19.2708 10 24.0833 10 30V60C10 65.9167 10 70.7292 10 74.4375C10 78.1458 10 80 10 80ZM10 90C7.25 90 4.89583 89.0208 2.9375 87.0625C0.979167 85.1042 0 82.75 0 80V10C0 7.25 0.979167 4.89583 2.9375 2.9375C4.89583 0.979166 7.25 0 10 0H80C82.75 0 85.1042 0.979166 87.0625 2.9375C89.0208 4.89583 90 7.25 90 10V22.5H80V10H10V80H80V67.5H90V80C90 82.75 89.0208 85.1042 87.0625 87.0625C85.1042 89.0208 82.75 90 80 90H10ZM50 70C47.25 70 44.8958 69.0208 42.9375 67.0625C40.9792 65.1042 40 62.75 40 60V30C40 27.25 40.9792 24.8958 42.9375 22.9375C44.8958 20.9792 47.25 20 50 20H85C87.75 20 90.1042 20.9792 92.0625 22.9375C94.0208 24.8958 95 27.25 95 30V60C95 62.75 94.0208 65.1042 92.0625 67.0625C90.1042 69.0208 87.75 70 85 70H50ZM85 60V30H50V60H85ZM65 52.5C67.0833 52.5 68.8542 51.7708 70.3125 50.3125C71.7708 48.8542 72.5 47.0833 72.5 45C72.5 42.9167 71.7708 41.1458 70.3125 39.6875C68.8542 38.2292 67.0833 37.5 65 37.5C62.9167 37.5 61.1458 38.2292 59.6875 39.6875C58.2292 41.1458 57.5 42.9167 57.5 45C57.5 47.0833 58.2292 48.8542 59.6875 50.3125C61.1458 51.7708 62.9167 52.5 65 52.5Z" fill="#1A4550"/>
</svg>
