<svg width="113" height="150" viewBox="0 0 113 150" fill="none" xmlns="http://www.w3.org/2000/svg">
<path d="M8.9407e-07 142.5V112.5C8.9407e-07 110.375 0.718751 108.594 2.15625 107.156C3.59375 105.719 5.375 105 7.5 105H15C17.125 105 18.9062 105.719 20.3437 107.156C21.7812 108.594 22.5 110.375 22.5 112.5V142.5C22.5 144.625 21.7812 146.406 20.3437 147.844C18.9062 149.281 17.125 150 15 150H7.5C5.375 150 3.59375 149.281 2.15625 147.844C0.718751 146.406 8.9407e-07 144.625 8.9407e-07 142.5ZM37.5 142.5V60.75C32.25 62.5 28.5938 65.5625 26.5313 69.9375C24.4688 74.3125 23.1875 79.0625 22.6875 84.1875C22.4375 85.9375 21.5625 87.3438 20.0625 88.4062C18.5625 89.4688 16.875 90 15 90C13 90 11.25 89.375 9.75 88.125C8.25 86.875 7.625 85.3125 7.875 83.4375C9.25 69.3125 14.5 58.125 23.625 49.875C32.75 41.625 44.875 37.5 60 37.5C71.25 37.5 79.9687 34.9688 86.1562 29.9063C92.3437 24.8437 96 17.25 97.125 7.12499C97.375 5 98.2187 3.28125 99.6562 1.96875C101.094 0.656247 102.875 -3.57628e-06 105 -3.57628e-06C107.125 -3.57628e-06 108.906 0.687497 110.344 2.0625C111.781 3.4375 112.375 5.125 112.125 7.12499C111.125 16.5 108.281 24.8437 103.594 32.1562C98.9062 39.4688 91.875 44.75 82.5 48V142.5C82.5 144.625 81.7813 146.406 80.3438 147.844C78.9063 149.281 77.125 150 75 150C72.875 150 71.0938 149.281 69.6563 147.844C68.2188 146.406 67.5 144.625 67.5 142.5V105H52.5V142.5C52.5 144.625 51.7813 146.406 50.3438 147.844C48.9062 149.281 47.125 150 45 150C42.875 150 41.0937 149.281 39.6562 147.844C38.2187 146.406 37.5 144.625 37.5 142.5ZM60 30C55.875 30 52.3437 28.5313 49.4063 25.5938C46.4687 22.6562 45 19.125 45 15C45 10.875 46.4687 7.34375 49.4063 4.40625C52.3437 1.46875 55.875 -3.57628e-06 60 -3.57628e-06C64.125 -3.57628e-06 67.6563 1.46875 70.5937 4.40625C73.5312 7.34375 75 10.875 75 15C75 19.125 73.5312 22.6562 70.5937 25.5938C67.6563 28.5313 64.125 30 60 30Z" fill="#1A434E"/>
</svg>
